<?xml version="1.0" encoding="UTF-8"?><svg id="Layer_1" xmlns="http://www.w3.org/2000/svg" viewBox="0 0 400 400"><defs><style>.cls-1{fill:#fff;}.cls-1,.cls-2{stroke-width:0px;}.cls-2{fill:#002aff;}</style></defs><rect class="cls-2" x="0" y="0" width="400" height="400"/><path class="cls-1" d="m77.16,100h85.68c47.66,0,72.56,24.63,72.56,54.89,0,20.88-11.78,35.07-28.11,42.57v.54c20.88,7.5,32.66,24.1,32.66,45.25,0,30.26-23.29,56.76-73.63,56.76h-89.16V100Zm83,79.25c14.19,0,20.62-7.23,20.62-15.26s-6.43-15.53-20.62-15.53h-25.17v30.79h25.17Zm.8,72.29c14.99,0,22.22-7.23,22.22-16.6s-7.5-16.6-21.95-16.6h-26.24v33.2h25.97Z"/><path class="cls-1" d="m264.48,100h58.37v200h-58.37V100Z"/></svg>